# xmcd CD database file
#
# Track frame offsets:
#	150
#	11124
#	25120
#	44009
#	53420
#	65896
#	79787
#	93051
#	117615
#	127799
#	141478
#	159009
#	171732
#	183654
#	195419
#	210736
#	219519
#	227913
#	234985
#	245335
#
# Disc length: 3446 seconds
#
# Revision: 0
# Processed by: cddbd v1.5.1PL0 Copyright (c) Steve Scherf et al.
# Submitted via: CDex 1.51
#
DISCID=190d7414
DTITLE=Frank Sinatra - Born In The U.S.A. - CD 2
DYEAR=2001
DGENRE=Jazz
TTITLE0=Come Rain Or Come Shine
TTITLE1=And Then You Kissed Me
TTITLE2=Ol' Man River
TTITLE3=The Night Is Young And You Are So Beautiful
TTITLE4=I Couldn't Sleep A Wink Last Night
TTITLE5=San Fernando Valley
TTITLE6=Amor
TTITLE7=Porgy And Bess Medley
TTITLE8=The Trolley Song
TTITLE9=With A Song In My Heart
TTITLE10=Begin The Beguine
TTITLE11=No Love, No Nothing
TTITLE12=Shoo, Shoo Baby
TTITLE13=Swinging On A Star
TTITLE14=Lover Come Back To Me
TTITLE15=Time After Time
TTITLE16=Somebody Loves Me
TTITLE17=Exactly Like You
TTITLE18=Make Believe
TTITLE19=Oh! What It Seemed To Me
EXTD=YEAR: 2001
EXTT0=
EXTT1=
EXTT2=
EXTT3=
EXTT4=
EXTT5=
EXTT6=
EXTT7=
EXTT8=
EXTT9=
EXTT10=
EXTT11=
EXTT12=
EXTT13=
EXTT14=
EXTT15=
EXTT16=
EXTT17=
EXTT18=
EXTT19=
PLAYORDER=
